# xmcd CD database file
#
# Track frame offsets:
#	150
#	13800
#	29673
#	41332
#	53895
#	72606
#	86417
#	104830
#	120220
#	135939
#	152908
#	169624
#	185219
#
# Disc length: 2649 seconds
#
# Revision: 0
# Processed by: cddbd v1.5.1PL0 Copyright (c) Steve Scherf et al.
# Submitted via: Feurio! 1.68 - http://www.feurio.com
#
DISCID=b10a570d
DTITLE=Annett Louisan - Bohème
DYEAR=2005
DGENRE=
TTITLE0=Das Spiel
TTITLE1=Die Lüge
TTITLE2=Die Dinge
TTITLE3=Das Gefühl
TTITLE4=Daddy
TTITLE5=Die Katze
TTITLE6=Der Schöne
TTITLE7=Die Gelegenheit
TTITLE8=Der Blender
TTITLE9=Die Trägheit
TTITLE10=Die Formel
TTITLE11=Das Liebeslied
TTITLE12=Das Spiel (Radiomix)
EXTD=
EXTT0=
EXTT1=
EXTT2=
EXTT3=
EXTT4=
EXTT5=
EXTT6=
EXTT7=
EXTT8=
EXTT9=
EXTT10=
EXTT11=
EXTT12=
PLAYORDER=
